<svg xmlns="http://www.w3.org/2000/svg" viewBox="0 0 32 24"><title>Controller</title><g id="Layer_2" data-name="Layer 2"><g id="Icons"><path d="M0,0V24H32V0ZM30,22H2V2H30Z"/><path d="M20,4H4V15H20Zm-2,9H6V6H18Z"/><rect x="21" y="4" width="3" height="2"/><rect x="25" y="4" width="3" height="2"/><rect x="21" y="7" width="3" height="2"/><rect x="25" y="7" width="3" height="2"/><rect x="21" y="10" width="3" height="2"/><rect x="25" y="10" width="3" height="2"/><rect x="21" y="13" width="3" height="2"/><rect x="25" y="13" width="3" height="2"/><circle cx="5.5" cy="18.5" r="1.5"/><circle cx="9.5" cy="18.5" r="1.5"/><circle cx="13.5" cy="18.5" r="1.5"/><rect x="17" y="17" width="3" height="1"/><rect x="21" y="17" width="3" height="1"/><rect x="25" y="17" width="3" height="1"/><rect x="17" y="19" width="3" height="1"/><rect x="21" y="19" width="3" height="1"/><rect x="25" y="19" width="3" height="1"/></g></g></svg>