<svg xmlns="http://www.w3.org/2000/svg" viewBox="0 0 27 25.08"><title>Horizontal Spindle Speed</title><g id="Layer_2" data-name="Layer 2"><g id="Icons"><path d="M24.5,12.54a11,11,0,1,0-11,11A11,11,0,0,0,24.5,12.54Zm-11,9a9,9,0,1,1,9-9A9,9,0,0,1,13.5,21.54Z"/><path d="M14.5,7.64V9.72a3,3,0,0,1,0,5.64v2.08a5,5,0,0,0,0-9.8Z"/><path d="M12.5,17.44V15.36a3,3,0,0,1,0-5.64V7.64a5,5,0,0,0,0,9.8Z"/><circle cx="13.5" cy="5.54" r="1"/><path d="M10.5,7.34A1,1,0,0,0,10.87,6,1,1,0,1,0,9.13,7,1,1,0,0,0,10.5,7.34Z"/><path d="M7.94,8.17a1,1,0,0,0-1,1.74,1,1,0,0,0,1-1.74Z"/><circle cx="6.5" cy="12.54" r="1"/><path d="M6.94,15.17a1,1,0,0,0,1,1.74,1,1,0,0,0-1-1.74Z"/><path d="M10.5,17.74a1,1,0,0,0-1.37.36,1,1,0,0,0,1.74,1A1,1,0,0,0,10.5,17.74Z"/><circle cx="13.5" cy="19.54" r="1"/><path d="M16.5,17.74a1,1,0,0,0-.37,1.36,1,1,0,0,0,1.74-1A1,1,0,0,0,16.5,17.74Z"/><path d="M20.06,15.17a1,1,0,0,0-1,1.74,1,1,0,1,0,1-1.74Z"/><circle cx="20.5" cy="12.54" r="1"/><path d="M20.06,9.91a1,1,0,1,0-1-1.74,1,1,0,0,0,1,1.74Z"/><path d="M16.5,7.34A1,1,0,0,0,17.87,7a1,1,0,1,0-1.74-1A1,1,0,0,0,16.5,7.34Z"/><path d="M27,12.54A13.42,13.42,0,0,0,19.82.62L20.13,0,18.5.54,19,2.17l.33-.66a12.49,12.49,0,0,1,0,22.06L19,22.91l-.54,1.63,1.63.54-.31-.62A13.43,13.43,0,0,0,27,12.54Z"/><path d="M7.63,23.57a12.49,12.49,0,0,1,0-22.06L8,2.17,8.5.54,6.87,0l.31.62a13.48,13.48,0,0,0,0,23.84l-.31.62,1.63-.54L8,22.91Z"/></g></g></svg>