<svg xmlns="http://www.w3.org/2000/svg" viewBox="0 0 28 32"><title>Horizontal Work Area</title><g id="Layer_2" data-name="Layer 2"><g id="Icons"><path d="M16,0C9.16,0,4,2.58,4,6V19.6a8.11,8.11,0,0,0,2,1.77V9.4C8.11,11,11.72,12,16,12s7.89-1,10-2.6V26c0,1.89-4.28,4-10,4S6,27.89,6,26v-.06a17.18,17.18,0,0,1-2-1.08V26c0,3.42,5.16,6,12,6s12-2.58,12-6V6C28,2.58,22.84,0,16,0Zm0,10C10.28,10,6,7.89,6,6s4.28-4,10-4S26,4.11,26,6,21.72,10,16,10Z"/><path d="M4,23.68a12.45,12.45,0,0,0,1.18.74.3.3,0,0,0,.11.06l.71.38v0c.33.17.68.33,1,.48s.56.23.85.33.54.19.82.27c0,0,0,0,.06,0l.86.25c.43.12.86.22,1.31.3a7.73,7.73,0,0,0,.81.16,27.58,27.58,0,0,0,2.8.3l0,1.4L17,26l-2.37-2.49,0,1.47A19.35,19.35,0,0,1,6,22.57v0a11.09,11.09,0,0,1-2-1.46v0a6.49,6.49,0,0,1-1.69-2.45c-.07-.18-.12-.36-.17-.53s-.05-.23-.07-.35a2.47,2.47,0,0,1,0-.38c0-.13,0-.26,0-.39a5.05,5.05,0,0,1,1-2.93V11.13A7.81,7.81,0,0,0,0,17c0,.17,0,.34,0,.5s0,.26,0,.38a1.87,1.87,0,0,0,0,.25,3.4,3.4,0,0,0,.07.34c0,.15.07.29.11.43a4.72,4.72,0,0,0,.18.53c.06.14.12.29.19.43s.14.3.22.45.17.3.26.44h0l.29.42.32.42a10.61,10.61,0,0,0,.72.8l.41.38A12.58,12.58,0,0,0,4,23.66Z"/><polygon points="20.57 5 11.43 5 11.43 3.57 9 6 11.43 8.43 11.43 7 20.57 7 20.57 8.43 23 6 20.57 3.57 20.57 5"/><polygon points="19.57 24.57 22 27 24.43 24.57 23 24.57 23 15.43 24.43 15.43 22 13 19.57 15.43 21 15.43 21 24.57 19.57 24.57"/></g></g></svg>