<svg xmlns="http://www.w3.org/2000/svg" viewBox="0 0 30 32"><title>Horizontal Structure</title><g id="Layer_2" data-name="Layer 2"><g id="Icons"><polygon points="30 10 28.06 8.06 28.06 9 2.06 9 2.06 7.93 0 10 2.06 12.06 2.06 11 28.06 11 28.06 11.94 30 10"/><polygon points="14 6.06 13.06 6.06 15 8 16.94 6.06 16 6.06 16 2.06 17.07 2.06 15 0 12.94 2.06 14 2.06 14 6.06"/><polygon points="16 14.06 17.07 14.06 15 12 12.93 14.06 14 14.06 14 30.06 13.06 30.06 15 32 16.94 30.06 16 30.06 16 14.06"/><polygon points="27 8 27 3 17 3 17 5 25 5 25 8 27 8"/><polygon points="5 5 13 5 13 3 3 3 3 8 5 8 5 5"/><polygon points="25 14 20 14 20 27 17 27 17 29 22 29 22 16 27 16 27 12 25 12 25 14"/><polygon points="10 14 5 14 5 12 3 12 3 16 8 16 8 29 13 29 13 27 10 27 10 14"/></g></g></svg>