<svg xmlns="http://www.w3.org/2000/svg" viewBox="0 0 31.94 32"><title>Lathes</title><g id="Layer_2" data-name="Layer 2"><g id="Icons"><path d="M26.6,20l-.29.29c-1.67,1.67-4.3,1-6.85.34A15.25,15.25,0,0,0,15.94,20a15.34,15.34,0,0,0-3.52.63C9.9,21.29,7.3,22,5.63,20.29L5.34,20H0V32H5.34l.29-.29c1.67-1.67,4.27-1,6.79-.34a15.34,15.34,0,0,0,3.52.63,15.25,15.25,0,0,0,3.52-.63c2.55-.66,5.18-1.33,6.85.34l.29.29h5.34V20Zm3.34,10H27.41C25,27.89,21.65,28.74,19,29.43a14.18,14.18,0,0,1-3,.57,14,14,0,0,1-3-.57C10.26,28.74,7,27.89,4.53,30H2V22H4.53c2.45,2.11,5.73,1.26,8.39.57a14,14,0,0,1,3-.57,14.18,14.18,0,0,1,3,.57c2.68.69,6,1.54,8.44-.57h2.53Z"/><path d="M11.92,18.59,20.31,10h3.63V0h-16V10h4Zm2-4.91V10h3.59ZM9.94,8V2h12V8h-12Z"/></g></g></svg>