<svg xmlns="http://www.w3.org/2000/svg" viewBox="0 0 32.08 32.5"><title>Lathe Chuck</title><g id="Layer_2" data-name="Layer 2"><g id="Icons"><path d="M8.74,19.76a.94.94,0,0,0-.56.12,1,1,0,0,0,1,1.74.93.93,0,0,0,.39-.42,1,1,0,0,0,0-.95A1,1,0,0,0,8.74,19.76Z"/><path d="M31.31,21.28A16,16,0,0,0,19.54.9V0h-7V.9A16,16,0,0,0,.77,21.28L0,21.72l3.5,6.06.78-.45a16,16,0,0,0,23.52,0l.78.45,3.5-6.06Zm-11.77-12A8,8,0,0,1,24,16.5c0,.19,0,.38,0,.57l-2.56-1.48a5.47,5.47,0,0,0-1.92-3.33ZM14.54,2h3v9h-3ZM16,13a3.5,3.5,0,0,1,3.5,3.5,3.44,3.44,0,0,1-.42,1.66,3.5,3.5,0,0,1-6.16,0,3.44,3.44,0,0,1-.42-1.66A3.5,3.5,0,0,1,16,13Zm4.47,10.12a7.93,7.93,0,0,1-8.94,0l2.55-1.47a5.44,5.44,0,0,0,3.84,0Zm-9.89-7.53L8.06,17.07c0-.19,0-.38,0-.57a8,8,0,0,1,4.5-7.19v2.95A5.47,5.47,0,0,0,10.62,15.59ZM2,16.5A14,14,0,0,1,12.54,2.94V7.13a10,10,0,0,0-6.36,11l-3.63,2.1A14,14,0,0,1,2,16.5Zm2.19,8.55-1.5-2.6,7.8-4.5,1.5,2.6ZM16,30.5a14,14,0,0,1-10-4.19l3.62-2.09h0a10,10,0,0,0,12.72,0h0L26,26.31A14,14,0,0,1,16,30.5Zm11.81-5.45-7.8-4.5,1.5-2.6,7.8,4.5Zm1.68-4.8-3.63-2.1a10,10,0,0,0-6.36-11V2.94a14,14,0,0,1,10,17.31Z"/><path d="M22.9,21.62a1,1,0,1,0,1-1.74.94.94,0,0,0-.56-.12,1,1,0,0,0-.8.49,1,1,0,0,0,0,.95A.93.93,0,0,0,22.9,21.62Z"/><path d="M16,7a1,1,0,1,0,1,1A1,1,0,0,0,16,7Z"/><circle cx="28.04" cy="16.5" r="1"/><path d="M25.93,9.63a1,1,0,0,0,1,1.74,1,1,0,1,0-1-1.74Z"/><circle cx="22.04" cy="6.11" r="1" transform="translate(-0.83 5.91) rotate(-15)"/><circle cx="16.04" cy="4.5" r="1"/><circle cx="10.04" cy="6.11" r="1" transform="translate(1.54 14.22) rotate(-75)"/><path d="M6.51,11a1,1,0,0,0-.36-1.37,1,1,0,0,0-1,1.74A1,1,0,0,0,6.51,11Z"/><circle cx="4.04" cy="16.5" r="1"/><path d="M5.15,21.63a1,1,0,0,0,1,1.74,1,1,0,0,0-1-1.74Z"/><circle cx="10.04" cy="26.89" r="1" transform="translate(-6.62 3.51) rotate(-15)"/><circle cx="16.04" cy="28.5" r="1"/><circle cx="22.04" cy="26.89" r="1" transform="translate(-9.64 41.22) rotate(-75)"/><path d="M25.93,23.37a1,1,0,1,0,1-1.74,1,1,0,0,0-1,1.74Z"/></g></g></svg>