<svg xmlns="http://www.w3.org/2000/svg" viewBox="0 0 32 24.07"><title>Lathes Max Machine Dimension</title><g id="Layer_2" data-name="Layer 2"><g id="Icons"><path d="M6,.07H0v24H6v-4H9v-7H6v-2H9v-7H6Zm-2,22H2v-20H4Zm3-7v3H6v-3Zm0-9v3H6v-3Z"/><path d="M28,5.07H15c-2.28,0-4,3-4,7s1.72,7,4,7h7.14l.44-2H17.86a10.33,10.33,0,0,0,1.14-5,10.33,10.33,0,0,0-1.14-5H28c.82,0,2,1.95,2,5s-1.18,5-2,5H26.65a20.23,20.23,0,0,1-.39,2H28c2.28,0,4-3,4-7S30.28,5.07,28,5.07Zm-13,12c-.82,0-2-2-2-5s1.18-5,2-5,2,1.95,2,5S15.82,17.07,15,17.07Z"/><polygon points="16.06 3.07 26.94 3.07 26.94 4.14 29 2.07 26.94 0 26.94 1.07 16.06 1.07 16.06 0 14 2.07 16.06 4.14 16.06 3.07"/><path d="M25,10,22.57,12.4H24a29.06,29.06,0,0,1-.38,4.67,16.34,16.34,0,0,1-.44,2,9.32,9.32,0,0,1-.93,2.32c-.28.45-.54.68-.74.68s-.52-.29-.9-1a9.15,9.15,0,0,1-.44-1H18.05a10.53,10.53,0,0,0,.36,1c.78,1.95,1.84,3,3.09,3a2,2,0,0,0,.74-.13c1.4-.5,2.39-2.39,3-4.87a19.15,19.15,0,0,0,.39-2A31,31,0,0,0,26,12.4h1.44Z"/></g></g></svg>