<svg xmlns="http://www.w3.org/2000/svg" viewBox="0 0 31.72 32"><title>Turret</title><g id="Layer_2" data-name="Layer 2"><g id="Icons"><path d="M31,16a14.78,14.78,0,0,0-.53-4l1.22-.58-4-6.92-1.11.77a15.06,15.06,0,0,0-6.86-4L19.86,0h-8L12,1.34a15.06,15.06,0,0,0-6.86,4L4,4.54,0,11.46,1.22,12a15.06,15.06,0,0,0,0,7.92L0,20.54l4,6.92,1.11-.77a15.06,15.06,0,0,0,6.86,4L11.86,32h8l-.11-1.34a15.06,15.06,0,0,0,6.86-4l1.11.77,4-6.92L30.5,20A14.78,14.78,0,0,0,31,16Zm-4-8.58,1.83,3.16L28,11l-3.67,1.74L23,10.27,26.28,8Zm-7.49-4a13.29,13.29,0,0,1,5.36,3.1L21.2,9.05a8.2,8.2,0,0,0-2-1.15ZM22.63,16a6.77,6.77,0,1,1-6.77-6.77A6.78,6.78,0,0,1,22.63,16ZM17.69,2l-.08,1L17.28,7H14.44l-.33-4L14,2ZM12.14,3.37l.37,4.53a8.2,8.2,0,0,0-2,1.15L6.78,6.47A13.29,13.29,0,0,1,12.14,3.37ZM4.65,7.42,5.44,8l3.33,2.3L7.36,12.73,3.69,11l-.87-.41ZM3.06,12.91l4.11,1.94a8.31,8.31,0,0,0,0,2.3L3.06,19.09a13.09,13.09,0,0,1,0-6.18ZM4.65,24.58,2.82,21.42,3.69,21l3.67-1.74,1.41,2.46L5.44,24Zm7.49,4.05a13.29,13.29,0,0,1-5.36-3.1L10.52,23a8.2,8.2,0,0,0,2,1.15ZM14,30l.08-.95L14.44,25h2.84l.33,4.05.08.95Zm5.55-1.37-.37-4.53a8.2,8.2,0,0,0,2-1.15l3.74,2.58A13.29,13.29,0,0,1,19.58,28.63Zm7.49-4.05L26.28,24,23,21.73l1.41-2.46L28,21l.87.41Zm1.59-5.49-4.11-1.94a8.31,8.31,0,0,0,0-2.3l4.11-1.94a13.09,13.09,0,0,1,0,6.18Z"/><path d="M10.86,7.34A1,1,0,1,1,11.23,6,1,1,0,0,1,10.86,7.34Z"/><circle cx="4.86" cy="16" r="1"/><path d="M11.23,26a1,1,0,1,1-.37-1.37A1,1,0,0,1,11.23,26Z"/><path d="M21.86,26.39A1,1,0,1,1,22.23,25,1,1,0,0,1,21.86,26.39Z"/><circle cx="26.86" cy="16" r="1"/><path d="M22.23,7a1,1,0,1,1-.37-1.36A1,1,0,0,1,22.23,7Z"/></g></g></svg>