<svg xmlns="http://www.w3.org/2000/svg" viewBox="0 0 25.14 25.14"><title>Lathes Tailstock</title><g id="Layer_2" data-name="Layer 2"><g id="Icons"><path d="M4.14,3.09a1.05,1.05,0,1,0,1.05,1A1,1,0,0,0,4.14,3.09Z"/><path d="M21.14,17.14v-5A6,6,0,0,0,18,6.84L6.19.54,6.11.49A4.14,4.14,0,1,0,2.88,8.08h0L5.4,9a4,4,0,0,1,2.74,3.79v4.4h-4v8h21v-8ZM6.22,4.62l0,.09a2.46,2.46,0,0,1-.14.38l0,0A2.16,2.16,0,0,1,4,6.27H4a2.36,2.36,0,0,1-.45-.08l-.09,0A2.14,2.14,0,0,1,4.14,2a2.27,2.27,0,0,1,.9.19l.13.07A2.14,2.14,0,0,1,6.28,4.14,1.86,1.86,0,0,1,6.22,4.62Zm.54,2.72.13-.13a4,4,0,0,0,.35-.36l.22-.26a4.21,4.21,0,0,0,.28-.45l.16-.29a3.24,3.24,0,0,0,.19-.55c0-.09.07-.18.09-.27a4.33,4.33,0,0,0,.1-.89,1.7,1.7,0,0,0,0-.22L17,8.6a4,4,0,0,1,2.13,3.54v5h-9v-4.4A6,6,0,0,0,6.76,7.34Zm16.38,15.8h-17v-4h17Z"/></g></g></svg>