<svg xmlns="http://www.w3.org/2000/svg" viewBox="0 0 31.66 31.66"><title>Vertical Structure</title><g id="Layer_2" data-name="Layer 2"><g id="Icons"><polygon points="8.33 8.33 13.83 8.33 13.83 7.33 7.33 7.33 7.33 13.83 8.33 13.83 8.33 8.33"/><polygon points="13.83 23.33 11.16 23.33 10.16 24.33 13.83 24.33 13.83 23.33"/><polygon points="23.33 13.83 24.33 13.83 24.33 10.16 23.33 11.16 23.33 13.83"/><polygon points="17.83 8.33 20.5 8.33 21.5 7.33 17.83 7.33 17.83 8.33"/><polygon points="7.33 21.5 8.33 20.5 8.33 17.83 7.33 17.83 7.33 21.5"/><polygon points="23.33 23.33 17.83 23.33 17.83 24.33 24.33 24.33 24.33 17.83 23.33 17.83 23.33 23.33"/><polygon points="28.83 18.66 31.66 15.83 28.83 13 28.83 14.83 19.66 14.83 17.66 16.83 28.83 16.83 28.83 18.66"/><polygon points="12 16.83 14 14.83 2.83 14.83 2.83 13 0 15.83 2.83 18.66 2.83 16.83 12 16.83"/><polygon points="14.83 14 16.83 12 16.83 2.83 18.66 2.83 15.83 0 13 2.83 14.83 2.83 14.83 14"/><polygon points="16.83 17.66 14.83 19.66 14.83 28.83 13 28.83 15.83 31.66 18.66 28.83 16.83 28.83 16.83 17.66"/><polygon points="9.16 3.46 9.73 2.54 10.24 3.46 11.63 3.46 10.54 1.79 11.56 0.2 10.24 0.2 9.73 1.05 9.28 0.2 7.89 0.2 8.92 1.8 7.82 3.46 9.16 3.46"/><polygon points="30.05 4.92 28.53 4.92 29.99 3.29 29.99 2.57 27.06 2.57 27.06 3.48 28.47 3.48 27 5.12 27 5.83 30.05 5.83 30.05 4.92"/><path d="M29.16,22.56l-.72-2H27.2l1.35,3.17-.06.11a.36.36,0,0,1-.35.21.59.59,0,0,1-.23,0,1,1,0,0,1-.21-.14l-.5.81a2,2,0,0,0,.49.27,1.64,1.64,0,0,0,.56.09,1.44,1.44,0,0,0,.82-.23,1.52,1.52,0,0,0,.53-.71L31,20.57H29.76Z"/><polygon points="24.44 8.64 25.73 9.93 25.73 5.93 21.73 5.93 23.02 7.22 7.22 23.02 5.93 21.73 5.93 25.73 9.93 25.73 8.64 24.44 24.44 8.64"/></g></g></svg>