<svg xmlns="http://www.w3.org/2000/svg" viewBox="0 0 27 32.26"><title>Vertical Work Area</title><g id="Layer_2" data-name="Layer 2"><g id="Icons"><path d="M27,5.52,17,0,.08,8.47,0,8.43V26.72l10,5.54,17-8.51V5.51ZM17,2.26,24.8,6.61,10,14,2.19,9.65ZM2,11.83l7,3.89V29.44l-7-3.9ZM25,22.51l-14,7h0V15.75h0l14-7Z"/><polygon points="10.38 12.05 20.75 6.86 20.93 7.23 21.34 6.01 20.11 5.6 20.3 5.97 9.93 11.15 9.74 10.78 9.34 12.01 10.56 12.41 10.38 12.05"/><polygon points="21.76 22.15 22.68 23.06 23.59 22.15 23.18 22.15 23.18 11.97 23.59 11.97 22.68 11.06 21.76 11.97 22.18 11.97 22.18 22.15 21.76 22.15"/><polygon points="8.32 26.69 7.97 25.45 7.77 25.81 3.72 23.55 3.92 23.2 2.68 23.55 3.03 24.79 3.23 24.43 7.28 26.68 7.08 27.04 8.32 26.69"/></g></g></svg>