<svg xmlns="http://www.w3.org/2000/svg" viewBox="0 0 32 32"><title>Vertical Machining Centers</title><g id="Layer_2" data-name="Layer 2"><g id="Icons"><path d="M8,12h4.5v1.13l-.84.35.39.92.45-.19v.92l-.84.35.39.92.45-.19v.92l-.84.35.39.92.45-.19v.92l-.84.35.39.92.45-.19v.92l-.84.35.39.92.45-.19V23h7V21.31l.84-.35L20,20l-.46.19v-.92l.84-.35L20,18l-.46.19v-.92l.84-.35L20,16l-.46.19v-.92l.84-.35L20,14l-.46.19v-.92l.84-.35L20,12l-.46.19V12H24V9h3V0H5V9H8Zm5.5,0h1.73l-1.73.72Zm5,10h-.66l.66-.27Zm0-1.36L15.23,22H13.5v-.2l5-2.07Zm0-2-5,2.08V19.8l5-2.07Zm0-2-5,2.07V17.8l5-2.07Zm0-2-5,2.07V15.8l5-2.07Zm0-2-5,2.07V13.8L17.84,12h.66ZM22,10H10V9H22ZM7,7V2H25V7Z"/><path d="M0,24v8H32V24Zm30,6H2V26H30Z"/></g></g></svg>