<svg xmlns="http://www.w3.org/2000/svg" viewBox="0 0 16.85 27.75"><title>Vert Spindle</title><g id="Layer_2" data-name="Layer 2"><g id="Icons"><path d="M12.93,3.46l-1.76.73L9.43,0,0,3.9,1.76,8.09,0,8.82l1.91,4.62L5.15,12.1l.41,1-.64.65.71.7L6,14.1l.35.85-.64.64.7.71L6.74,16l.35.85-.64.64.71.71.35-.35.35.85-.64.64.7.71.35-.35.35.85L8,21.14l.71.7L9,21.5l.3.73,1.36-.57.38.93-.92.38,1.15,2.77.92-.38L13,27.21l.92-.38.38.92L16.15,27l-.38-.93.92-.38-.76-1.85.92-.38L15.7,20.67l-.92.39-.39-.93,1.42-.58L15.16,18l.65-.64-.71-.71-.35.35-.35-.84.64-.65-.71-.7-.35.35-.35-.85.65-.65-.71-.7-.35.35-.36-.85.65-.64-.71-.71-.35.35-.35-.85.64-.64-.7-.7,2.81-1.17ZM2.64,5,8.35,2.61,9.32,5,3.61,7.32Zm3.43,6.74,1.5-.62L6.33,12.34Zm.67,1.62L10,10.1l.71-.29.23.55L7.09,14.19Zm8.8,9.57-3.69,1.53-.39-.93L15.16,22Zm-.16,2.23-1.84.76L13.15,25,15,24.21Zm-1.53-3.7L12,22.21l-.39-.93,1.85-.76ZM14.5,19l-.49.2-.13.05.52-.51ZM14,17.75l-2.51,2.51-1.15.48-.44.18-.08-.19,3.83-3.83Zm-.76-1.85L9.39,19.73,9,18.88l3.82-3.83Zm-.77-1.85L8.62,17.88,8.27,17l3.83-3.82Zm-.76-1.84L7.86,16l-.35-.84,3.82-3.83Zm0-2.62-.08-.17L12,9.25ZM12.23,7,3,10.83,2.61,9.9l9.24-3.82Z"/></g></g></svg>