<svg xmlns="http://www.w3.org/2000/svg" viewBox="0 0 32 32"><title>Vertical Tool Magazine</title><g id="Layer_2" data-name="Layer 2"><g id="Icons"><path d="M16,0A16,16,0,1,0,32,16,16,16,0,0,0,16,0Zm0,30A14,14,0,1,1,30,16,14,14,0,0,1,16,30Z"/><path d="M16,9a7,7,0,1,0,7,7A7,7,0,0,0,16,9Zm0,12a5,5,0,1,1,5-5A5,5,0,0,1,16,21Z"/><path d="M16,8.5a3,3,0,1,0-3-3A3,3,0,0,0,16,8.5Zm0-5a2,2,0,1,1-2,2A2,2,0,0,1,16,3.5Z"/><path d="M8.58,11.58A3,3,0,0,0,10.7,6.45a3.09,3.09,0,0,0-4.25,0,3,3,0,0,0,2.13,5.13ZM7.16,7.16A2,2,0,1,1,10,10a2.06,2.06,0,0,1-2.83,0,2,2,0,0,1,0-2.83Z"/><path d="M8.5,16a3,3,0,1,0-3,3A3,3,0,0,0,8.5,16Zm-3,2a2,2,0,1,1,2-2A2,2,0,0,1,5.5,18Z"/><path d="M6.45,21.3a3,3,0,1,0,4.25,0A3.09,3.09,0,0,0,6.45,21.3ZM10,24.84a2.06,2.06,0,0,1-2.83,0,2,2,0,1,1,2.83,0Z"/><path d="M16,23.5a3,3,0,1,0,3,3A3,3,0,0,0,16,23.5Zm0,5a2,2,0,1,1,2-2A2,2,0,0,1,16,28.5Z"/><path d="M21.3,21.3a3,3,0,1,0,4.25,0A3.09,3.09,0,0,0,21.3,21.3Zm3.54,3.54a2.06,2.06,0,0,1-2.83,0,2,2,0,1,1,2.83,0Z"/><path d="M26.5,13a3,3,0,1,0,3,3A3,3,0,0,0,26.5,13Zm0,5a2,2,0,1,1,2-2A2,2,0,0,1,26.5,18Z"/><path d="M23.42,11.58a3,3,0,0,0,2.13-5.13,3.09,3.09,0,0,0-4.25,0,3,3,0,0,0,2.12,5.13ZM22,7.16A2,2,0,0,1,24.84,10,2.06,2.06,0,0,1,22,10a2,2,0,0,1,0-2.83Z"/></g></g></svg>