<svg version="1" xmlns="http://www.w3.org/2000/svg" width="116.133" height="118.267" viewBox="0 0 871 887">
  <path d="M386.1 33.1c-16.1.7-20.8 1.2-22.1 2.4-.9.8-5.3 2.2-9.6 3-36.3 6.5-72 18-106 34.4C129.5 130.2 44.4 241.6 20.6 371c-5.2 28.7-6.1 39.1-6.1 75.5s.9 46.8 6.1 75.5c11.9 64.5 41.9 128.8 86 184.3 13 16.2 46.6 49.7 63.4 63.1 74.5 59.4 163.6 90.8 258 90.8 46.4.1 87.5-6.4 130.5-20.7 89.1-29.5 162.9-86.2 216.3-166.1 4.5-6.7 10.8-15.4 14.2-19.4 5.9-7.1 7.8-10.9 6.5-13-.3-.6 1.7-5.8 4.5-11.6 22.2-45.6 35.7-93.4 40.5-143.2 1.9-20 1.9-58.4 0-78.3-6.7-69.4-29.1-132.7-67.3-190.3C715.4 130.5 628 68.8 526.9 43.8c-11.1-2.7-13.2-3.6-14-5.5-1.9-5.1-1.8-5.1-55.9-5.6-27.8-.3-59.7-.1-70.9.4zm111.1 22.6c.1 3.8.2 60.9 0 127.1l-.3 120.3-59.7-.7c-32.8-.4-59.9-.8-60.1-1-.3-.3-.7-57.1-.9-126.4l-.5-126h121.1l.4 6.7zM361 115.5v54.4l-4.2 1.1c-10.8 2.6-36.5 11.7-48.2 17-33.6 15.4-62.1 35.5-88.2 62.2-45 46.1-71.3 99.8-81.1 165.3-2.7 18.5-2.5 62.1.5 81 3.8 24.1 10.8 49.8 19.2 69.8l3.3 7.9-2.4 2.3c-5.2 5.1-72.3 63.5-73 63.5-1.1 0-12.4-22.7-17.9-35.9a435.89 435.89 0 0 1-30.2-117.6c-1.7-15.8-1.7-63.2 0-79.5C50.1 301.4 102 206.9 185.5 139.9c37.5-30.1 87.3-55.7 134.8-69.4 12.1-3.4 36-9.1 40-9.4.4-.1.7 24.4.7 54.4zm168.5-47c43 11.3 78.6 27.5 117.4 53.2 21 14 37.3 27.4 57.7 47.8 33.6 33.5 53.8 61.1 74.5 102 21.4 42.5 34.4 86.7 39.4 135 2 18.9 2.3 57 .6 75.5-4.1 44-17.1 92.2-34.7 129.1-3.2 6.6-6.1 11.9-6.6 11.9-1 0-72.7-60.4-74.2-62.4-.5-.7.9-6.6 3.9-15.7a291.13 291.13 0 0 0-34.2-251.7c-11.1-16.7-22-30.1-37.2-45.3-31.9-32-68.1-54.8-111.1-70l-10.5-3.7-.3-54.6c-.2-43.3 0-54.6 1-54.6.7 0 7.2 1.6 14.3 3.5zM361 195.3v20.3l-5.7 1.8c-30.6 9.5-67.4 30.8-90.8 52.6-2.7 2.6-7.5 6.3-10.5 8.2-6.5 4.1-11.1 9.1-14.4 15.6-1.3 2.6-5.4 8.8-9.1 13.7-15.7 21.1-30.6 51.5-38 77.6-1.5 5.2-4 11.4-5.7 13.9-4.4 6.7-6.2 14.1-5.4 21.9.4 3.6.8 19.2 1 34.6.2 23.6.6 30 2.5 40.5 2.5 14.4 5 24.6 9.3 38l3 9.5-5.3 4.8c-3 2.7-10 8.9-15.6 13.8l-10.2 8.9-4.9-12.7c-12.4-31.8-18-60.2-18.9-95.4-1.3-50.3 7.6-91.4 29.2-135.4 15-30.3 30.3-51.5 55.4-76.5 29.6-29.5 58.4-48.6 95.9-63.6 11.1-4.5 34.4-12.1 37.5-12.4.4 0 .7 9.1.7 20.3zm165.1-11.7c20.7 7.2 42.2 18 62.2 31.1 32.6 21.5 64.4 54.3 85.6 88.5 40.8 65.4 53.4 146.4 34.5 221.3-3.1 12.2-9.3 31.5-10.1 31.5-.5 0-18-14.4-25.7-21.1-.4-.4.6-6.3 2.4-13.1 7.3-28 10.1-55.9 8.2-81.6-1.1-14.6-1.1-16.1.7-20.7 5.5-14.8 2.2-29.7-8.9-39.8-3.7-3.5-5.2-6-8.4-14.2-5.4-14-15.8-34-24.4-47-4.3-6.5-7.7-12.8-8.3-15.5a34.73 34.73 0 0 0-19.8-23.8c-3.1-1.4-9.2-5.7-13.6-9.6-22.6-20.1-46.6-35.1-73.3-46l-12.7-5.2-.3-19.2c-.1-11.3.1-19.2.7-19.2.5 0 5.5 1.6 11.2 3.6zM361 243.5v20.4l-11.2 5.4c-13.6 6.5-27.3 14.8-37.3 22.8-4.1 3.2-7.7 5.9-8 5.9-.2 0-1.4-1.9-2.6-4.3-5.5-10.8-15.4-18.1-26.6-19.5l-5.7-.7 6.9-5.8c11-9.2 32.5-23.1 46.8-30.2 13.1-6.4 32.6-14.3 36-14.4 1.6-.1 1.7 1.5 1.7 20.4zm184-3.9c13.6 6.9 28.9 16.9 41.8 27.4 10.1 8.1 11.2 9.9 6 10-6.2 0-17.9 8.8-22.5 16.9-1.5 2.5-2.8 4.8-2.9 4.9-.1.2-3.3-2.1-7.1-5.1-10.3-8.2-21.6-15.5-34-21.9l-11.2-5.8-.6-19.1c-.3-10.4-.3-19.4 0-19.9.7-1.1 16.6 5.5 30.5 12.6zm-184.8 51.9c-.5 23.3-.1 25.2 5.2 27.7 2.3 1 1.9 1.4-6.8 7.1-12.4 8.4-28.5 24.5-36.9 37.3-16 24.2-23.2 48.5-23.2 78.4 0 8.5.4 16.8.8 18.3.7 2.6.6 2.7-1.2 1.8-1.1-.6-3.3-1.1-4.9-1.1-3.4 0-6.4 2.3-23.4 18-6.3 5.8-14.2 12.9-17.5 15.8l-6.1 5.2-1.6-7.3c-2.6-11.8-4.6-28.4-4.6-39.6 0-9.6.2-10.7 2.6-13.8 6.9-9.1 8.9-20.1 5.5-31.2l-2.2-7.2 4.1-12c4.5-13.5 9.8-25.4 16.8-37.6 4.5-8 4.7-8.1 9.2-8.8 15.3-2.1 27.6-15.7 28.8-31.6l.5-7 8.1-6.3c11.5-9 22.4-15.9 34.9-22.2 6-3 11.2-5.4 11.6-5.4.4 0 .5 9.7.3 21.5zm165.7-13.9c11 5.9 21.4 12.9 31.7 21.2l8.2 6.5.4 7.1c.3 4.1 1.4 9.1 2.6 11.8 4.4 10 15.4 18.5 26 20.3 3.6.6 4.7 1.3 6.9 4.8 4.3 6.7 12.9 24.6 15.7 32.6 2.6 7.3 2.6 7.4.9 12-2.6 6.6-2.3 18 .5 25.2 1.3 3.2 4.2 7.9 6.5 10.5l4.2 4.8-.1 18c-.1 13.4-.7 21-2.2 29.4-1.1 6.3-2.3 11.6-2.5 11.9-.3.3-5.9-3.9-12.4-9.4-30.3-25.4-30.9-25.8-36.8-21.1l-2.8 2.2.7-2.4c1.5-5 1.9-30.9.6-40.3-4.3-31.7-17.5-58.2-40.1-80.5-7.1-7-18.7-16.1-26.5-20.8-1.8-1.1-1.7-1.3.7-2.2 5.5-2.2 5.9-3.8 5.9-25.9 0-18.3.2-20.3 1.7-20.3.9 0 5.5 2.1 10.2 4.6zm-288.5 38.5c1.5 9.3 8.4 18.2 17.8 22.9 3.4 1.6 6.9 3 7.8 3 2.9 0 2.9 1.1-.2 6.3-5.7 9.6-13.5 26.6-16.9 36.9-1.9 5.7-3.5 10.5-3.6 10.7-.1.2-2.3-1.5-4.9-3.7-6.9-6.1-14-8.5-23.9-8-5.6.3-9.3 1.1-12.2 2.6-2.3 1.2-4.4 2.2-4.7 2.2-.9 0 7.5-23.3 12.3-34.1 2.6-5.8 6.1-12.7 7.7-15.3 11.4-18.2 18.5-28.6 19.3-28.2.4.3 1.1 2.4 1.5 4.7zM640 327c4.9 7.6 18.1 33.8 20.3 40.5 1.5 4.3 1.5 4.6-.1 4.1a28.6 28.6 0 0 0-14.8-.6c-7.3 1.5-12.3 4-17.4 8.6l-4 3.6-.9-2.3c-4.2-10.8-6-14.8-11.2-24.6-3.2-6.2-5.9-11.5-5.9-11.8 0-.3.8-.5 1.8-.5 3.5 0 14-6.1 17.7-10.2 2.1-2.2 4.9-6.5 6.2-9.5 1.4-3 2.9-5.1 3.3-4.6.4.4 2.7 3.7 5 7.3zm-163.2-4.6c28.1 9.6 52.2 29.6 67.5 56.1 8.9 15.3 14 31.5 15.9 50.7 1.4 14 .2 28.2-3.7 43.1-4.4 16.8-6.5 20.4-27 44.9-10.2 12.3-20.5 23.8-22.8 25.7-6.7 5.3-27.1 14.8-38.1 17.6-25.2 6.4-48.1 5.6-73.1-2.6-18.5-6.1-19.4-6.9-48.8-40.7-24.4-28-26.4-30.6-27.4-35.5-.7-2.8-2.4-9.5-3.8-14.7-5.3-19-4.4-43.4 2.1-64.3 11.6-36.8 41.6-67.6 77.9-80.2 6.8-2.3 7.7-2.4 40.6-2.4 32.9-.1 33.7-.1 40.7 2.3zm199.9 139.1c-.4 15-1.1 24.6-2.6 33.4-2.3 13.2-6.8 32.1-7.9 33.3-.4.4-8.6-6-18.2-14.1-19.8-16.7-18.6-14.3-15.6-29.6 1.1-5.7 2-16.1 2.3-28.1l.6-19.1 4.8 1.8c9.4 3.6 22.1 1.9 31-4l4.4-3 .8 4.2c.5 2.3.6 13.6.4 25.2zm-479-14.3c10.4 7.1 22.8 7.1 36.6 0 .4-.2.7 2.8.7 6.8 0 10.1 1.7 24.6 4.6 38l2.4 11.5-2.8 2.7c-5.5 5.4-36.7 32.8-37.4 32.8-1 0-5.4-14.2-8.3-26.5-4.1-17.3-5.6-30.3-6.2-52.5l-.5-21.5 2.8 2.6c1.6 1.5 5.2 4.2 8.1 6.1zm111.4 53.5c8.9 10.4 26.4 30.4 38.8 44.6 12.4 14.3 22.6 26.2 22.6 26.6 0 .6-8.2 7.9-39.6 35.1-7.9 6.9-46.9 41.2-116.9 103-15.1 13.3-28.7 25.3-30.1 26.7l-2.7 2.4-11.4-12.8c-6.3-7-24.4-27.6-40.2-45.7l-28.8-32.9 2.3-2.2C115.3 633.9 291 482.4 292.7 482c.1 0 7.4 8.4 16.4 18.7zm288-6.4c7.9 6.8 36 30.3 62.4 52.3 26.4 22 62.8 52.3 80.9 67.4 18.1 15.1 33.6 28.1 34.4 28.7 1.4 1.1 1.4 1.5 0 3-.8 1-17.4 20.9-36.9 44.1-19.5 23.3-36.3 43.5-37.5 44.8l-2 2.4-10-8.2c-8.7-7.2-31-25.9-79.9-67.1-7.7-6.6-16.7-14.2-20-16.9-3.3-2.8-14.5-12.3-24.9-21.2-60.7-51.7-58.6-49.7-56.5-52.3 1.3-1.6 15.4-18.7 34.4-41.3 3.9-4.7 14.5-17.4 23.5-28.3 9-10.8 16.6-19.7 17-19.7.3 0 7.1 5.5 15.1 12.3zm-112.8 79.3c-.5 3.2-.2 3.9 4.8 8.8 3 2.8 8.1 7.1 11.2 9.5 5.2 3.8 28.1 22.4 31.6 25.7 1.1 1-.4 2.1-9 6.4-5.6 2.9-14.3 6.7-19.1 8.6-7.4 2.8-9.3 3.2-11.6 2.3-1.5-.6-6.1-1.1-10.2-1.2-6.2 0-8.6.4-13.5 2.7-3.3 1.5-7.3 3.9-8.8 5.4-2.7 2.6-3 2.6-19.2 3-9 .3-20.7-.1-26-.7-8.3-1-10.3-1.6-14.7-4.6-7.2-5-14.5-6.9-23.3-6.1-7.9.7-8.5.6-24.8-7.1-5.3-2.6-9.6-5-9.5-5.3.2-.4 9.5-8.8 20.8-18.7 27.8-24.5 29-25.7 29-28.1 0-1.2.2-2.2.5-2.2s4.7 1.1 9.9 2.4c26.7 7 57.5 5.4 82.3-4.3.1-.1-.1 1.5-.4 3.5zm71.6 63.7c9.9 8.2 18.5 15.4 19.1 16.2 2.4 2.8-28.8 21.1-52 30.4-6.8 2.8-12.5 4.9-12.7 4.8-.1-.2.9-2.5 2.3-5.3 3.2-6.4 4.3-13.9 3.2-21-1.1-7.3-4-12.8-9.6-18.6-2.5-2.6-4.4-4.9-4.1-5.1.2-.2 2.7-1.2 5.4-2.2 5.8-2 26.5-12.2 28-13.6.5-.5 1.3-.8 1.7-.7.4.2 8.8 7 18.7 15.1zm-206.8-6.8c6.3 3 12 5.5 12.7 5.5 2 0 1.4 1.7-1.5 3.5-4.1 2.7-8.2 7.5-11.1 13-2.3 4.4-2.7 6.2-2.7 14.5 0 8.2.4 10.3 2.7 15.2 1.5 3.2 2.5 5.8 2.2 5.8-1.2 0-22.9-9.2-29.6-12.6-8.6-4.3-23.5-13.1-24.3-14.4-.4-.7 38.7-36 40-36 .1 0 5.4 2.5 11.6 5.5zm89 19.3l14.7-.3-2.1 4c-3.2 6.2-3.5 19.3-.7 26.7 2.3 6.2 10.5 16.2 14.2 17.4 4.1 1.3-.6 2.2-16.7 3.4-15.9 1.1-24.6.9-42.8-1.2l-9.7-1 4.3-2.8c10.7-6.7 17-21.3 14.8-33.6-.8-4.3-2.9-10.1-4.8-13.5-.2-.3 2.9-.1 6.9.3 4 .5 13.9.8 21.9.6zm156.3 19.3c6.6 5.6 12.1 10.6 12.1 11.2 0 .5-4 3.8-8.8 7.3-97 69.7-224.7 72.7-325.5 7.8-4.6-3-8.2-5.8-8-6.3.5-1.3 26.9-24.1 27.9-24.1.5 0 4.6 2.3 9 5.1 21.5 13.4 60.6 29.5 77.9 31.9 4.1.6 8.2 1.2 9 1.5 6.1 1.8 28.2 3.6 45.1 3.6 38.4 0 71.6-7.3 105.7-23.2 11-5.1 31.1-16.7 37.7-21.7 2.2-1.7 4.4-3.1 4.9-3.1.4-.1 6.3 4.5 13 10zm53.2 44.5c19.5 16.2 35.4 30 35.4 30.5 0 1.3-13.3 12.1-27.3 22.1-54.8 39.1-119.6 63.6-187.7 71-14.9 1.6-65.1 1.6-80 0-60.7-6.6-117.6-26.3-168.8-58.4-11.5-7.2-32.2-21.9-32.2-22.8 0-.6 70.7-62.2 72.1-62.8.5-.2 4.7 2.3 9.6 5.6 38.7 25.8 83.3 41.6 131.5 46.7 70.7 7.3 144.1-12.5 200.8-54.3 5.2-3.9 9.9-7.1 10.4-7.1.5-.1 16.8 13.2 36.2 29.5z"/>
  <path d="M423.3 62.8c-5.9 2.1-13.2 7.4-16.2 11.7-1.1 1.7-3 5.7-4.1 8.9-5.8 17 1.3 35.2 16.7 42.8 6.1 3 7.6 3.3 15.3 3.3 10.8 0 17.5-3 24.9-11 15.9-17.5 10.6-44.5-10.6-54.2-7.7-3.5-18.6-4.1-26-1.5zM428.3 141.4c-10.3 3.4-17.1 9.5-21.4 19.2-1.7 3.7-2.2 7-2.3 13.4 0 7.3.3 9.4 2.8 14.7 3.3 7.3 10.3 14.4 17.4 17.6 3.6 1.7 6.6 2.2 13.2 2.2 10.4 0 15.6-2.1 23.4-9.5 14.7-13.9 14.9-36 .4-49.6-2.7-2.5-6.9-5.5-9.5-6.6-5.9-2.6-18.2-3.3-24-1.4zM430.5 218.4c-9 2.9-10.8 3.9-16.3 9-9.4 8.6-13.2 22.8-9.4 35.3 5.2 17.1 16.3 25.8 32.7 25.7 14.9-.1 26.3-7.1 32.7-20.2 3-6.1 3.3-7.4 3.3-16.2-.1-8.7-.4-10-3.2-15.5-3.9-7.5-10.2-13.7-17.3-16.9-8-3.6-14.1-4-22.5-1.2zM424 345.7c-20.5 3.2-36.8 11.3-51.9 25.7-16.8 16.2-26.5 36-29.1 59.3-1.8 17 .9 32.5 8.6 49.2 5.6 11.9 11.2 19.8 20.5 28.6 17.5 16.6 37 25.1 60.6 26.2 16.6.8 33.3-2.6 47.3-9.7 19.6-10 37.3-29.5 45.2-49.8 21.6-55.4-11.1-116.8-68.5-128.6-7-1.5-26-2-32.7-.9zm27.8 20.8c27.5 5.7 49.6 26.6 57.4 54.1 2.8 10.2 3.1 27.6.5 37.4-5.7 21.7-21.9 40.9-42.1 50-20 9-45.4 8.7-63.9-.7-19.6-9.9-33.2-26.1-39.9-47.3-3-9.7-3.3-28.9-.5-39 8.8-32.7 38.2-55.8 71.4-55.9 5.6-.1 13.3.6 17.1 1.4zM291.2 525.1c-7.9 1.5-15.9 5.9-21.2 11.5-7.3 7.7-9.4 12.9-9.4 23.4-.1 7.5.3 9.4 3.3 16 5.4 12.2 12.5 17.9 25 19.9 16 2.6 31.5-5.6 38.7-20.6 2.4-5 2.8-7 2.9-14.8 0-7.9-.4-9.8-2.9-15.2-2.9-6.4-10.5-14.7-16.2-17.6-2.5-1.3-13.7-3.9-15.3-3.6-.3.1-2.5.5-4.9 1zM224.6 579.8c-6.3 2.1-14.5 9.6-18.8 17-3.1 5.4-3.3 6.3-3.3 15.2 0 8.5.3 10.1 2.9 14.9 3.9 7.6 11.3 14.5 18.3 17.1 4.8 1.8 7.3 2.1 14.3 1.8 13.7-.7 22.8-6.6 28.6-18.5 2.6-5.2 2.9-6.8 2.9-15.8 0-8.6-.3-10.7-2.5-15-3-6.1-9.5-12.6-15.7-15.7-6.2-3-19.4-3.5-26.7-1zM166.7 628c-10 2.6-18 9.5-23.6 20.4-3.2 6.2-3.3 7.1-2.9 14.3.8 13.5 7.6 23.6 19.6 29.5 6 3 7.5 3.3 15.2 3.3 9.9-.1 15.3-2.1 22.1-8.2 14.4-13 15.7-35 3-49.6-4.9-5.5-14.6-9.9-22.8-10.3-3.8-.2-8.5.1-10.6.6zM573.4 523.9c-6.5 1.7-12.5 5.4-17.8 11.2-4.3 4.6-6 7.4-7.6 12.5-2.4 8-2.5 11.3-.4 18.5 3.1 10.5 10.5 19.3 20.6 24.5 4.5 2.4 6.6 2.8 13.8 2.8 9.6 0 13.5-1.3 23.6-8.2 20.3-13.9 16.2-46.8-7.2-58.3-5.3-2.6-8-3.3-14.2-3.5-4.2-.2-9.1 0-10.8.5zM631 576.6c-18.1 5.7-27.8 27.7-20.1 45.7 2.7 6.2 9.8 13.7 15.8 16.6 2.6 1.2 5.6 2.6 6.5 3.2 1 .5 5.3.9 9.5.9 10 0 17.6-3.4 24.6-10.9 12-12.8 12.8-29.6 2.3-43.9-3.6-4.9-5.8-6.6-11.7-9.6-6.4-3.2-8-3.6-14.8-3.5-4.2 0-9.6.7-12.1 1.5zM690.1 629.4c-20.1 6.6-29.4 28.7-20 47.6 6.2 12.3 20.5 20.8 33.5 19.7 8.6-.6 16-4.4 22.3-11.2 6.9-7.6 9.4-14.6 8.9-25-.5-13.2-6.8-22.9-18.4-28.6-7.8-3.8-18.9-4.9-26.3-2.5z"/>
</svg>
